PathFileType	4	(X/Y/Z)	C:\Users\Basilio\Documents\Thesis Gigler\squatting_fais\c3dfiles\039\SJ_pre1\markers_experimental.trc
DataRate	CameraRate	NumFrames	NumMarkers	Units	OrigDataRate	OrigDataStartFrame	OrigNumFrames
200.000000	200.000000	4	61	mm	200.000000	696	1858
Frame#	Time	FHD			LBHD			RBHD			C7			T10			CLAV			LSHO			LUUPA			LMUPA			LDUPA			LLEP			LMEP			LRAD			LUL			LRFIN			RSHO			RUPA1			RMUPA			RDUPA			RLEP			RMEP			RRAD			RUL			RUFIN			LASI			RASI			USACR			LSACR			RSACR			LTHI1			LTHI2			LTHI3			LTHI4			LLFC			LMFC			LTIB1			LTIB2			LTIB3			LTIB4			LLMAL			LMMAL			LHEE			LMT1			LMT2			LMT5			RTHI			RTHI2			RTHI3			RTHI4			RLFC			RMFC			RTIB1			RTIB2			RTIB3			RTIB4			RLMAL			RMMAL			RHEE			RMT1			RMT2			RMT5			
		X1	Y1	Z1	X2	Y2	Z2	X3	Y3	Z3	X4	Y4	Z4	X5	Y5	Z5	X6	Y6	Z6	X7	Y7	Z7	X8	Y8	Z8	X9	Y9	Z9	X10	Y10	Z10	X11	Y11	Z11	X12	Y12	Z12	X13	Y13	Z13	X14	Y14	Z14	X15	Y15	Z15	X16	Y16	Z16	X17	Y17	Z17	X18	Y18	Z18	X19	Y19	Z19	X20	Y20	Z20	X21	Y21	Z21	X22	Y22	Z22	X23	Y23	Z23	X24	Y24	Z24	X25	Y25	Z25	X26	Y26	Z26	X27	Y27	Z27	X28	Y28	Z28	X29	Y29	Z29	X30	Y30	Z30	X31	Y31	Z31	X32	Y32	Z32	X33	Y33	Z33	X34	Y34	Z34	X35	Y35	Z35	X36	Y36	Z36	X37	Y37	Z37	X38	Y38	Z38	X39	Y39	Z39	X40	Y40	Z40	X41	Y41	Z41	X42	Y42	Z42	X43	Y43	Z43	X44	Y44	Z44	X45	Y45	Z45	X46	Y46	Z46	X47	Y47	Z47	X48	Y48	Z48	X49	Y49	Z49	X50	Y50	Z50	X51	Y51	Z51	X52	Y52	Z52	X53	Y53	Z53	X54	Y54	Z54	X55	Y55	Z55	X56	Y56	Z56	X57	Y57	Z57	X58	Y58	Z58	X59	Y59	Z59	X60	Y60	Z60	X61	Y61	Z61	

697	3.48	38.93406677246094	1408.65771484375	-815.3836059570315	-105.5759582519532	1385.007446289063	-951.3875122070315	-93.68368530273439	1389.614868164063	-809.7491455078127	-173.1725463867188	1297.168090820313	-894.064636230469	-388.5252685546876	1071.016845703125	-904.4514770507815	-103.5868606567383	1155.05419921875	-888.6500244140627	-96.04087829589847	1223.234375	-1075.637817382813	-225.7649536132813	1175.36328125	-1255.345825195313	-221.5725097656251	1125.033813476563	-1256.274536132813	-259.4681091308594	1134.856323242188	-1302.16845703125	-300.2479553222657	1082.705078125	-1332.69091796875	-372.0382690429688	1128.49267578125	-1303.384643554688	-468.6344604492189	928.3238525390627	-1147.229248046875	-441.1068725585939	874.0131835937502	-1192.504516601563	-429.4603881835939	909.652038574219	-1093.225830078125	-112.0702438354492	1213.920166015625	-701.5129394531251	-268.6356506347657	1202.872436523438	-552.1099853515626	-267.3599548339844	1153.849243164063	-537.7483520507814	-312.8727416992188	1175.5751953125	-504.0934448242189	-352.0370178222657	1122.623901367188	-472.8842773437501	-420.5989990234376	1164.892578125	-514.3613891601564	-456.6608886718751	954.5617675781252	-698.0866699218751	-465.0362243652345	903.1128540039065	-643.2059936523439	-412.2149047851564	914.4783935546877	-740.2798461914064	-373.9848327636719	838.3927001953127	-1018.665405273438	-374.3090515136719	836.5277099609377	-805.206481933594	-496.3601379394532	984.0991210937502	-907.016784667969	-522.3015136718751	964.4194946289065	-935.667175292969	-526.2418212890626	963.170593261719	-877.8574218750002	-357.4723815917969	664.1362915039064	-1127.4150390625	-280.8341369628907	626.6919555664064	-1138.363159179688	-243.4360809326172	656.5057373046876	-1132.300415039063	-267.0095825195313	567.0236816406251	-1124.520751953125	-197.9928894042969	488.8029174804689	-1123.230834960938	-159.5516510009766	468.0702514648439	-1019.90771484375	-161.4232025146485	344.8461608886719	-1110.700927734375	-238.5517272949219	325.8421936035157	-1149.7998046875	-202.6847381591797	311.7326660156251	-1131.40478515625	-225.6280059814454	235.3134002685547	-1091.647705078125	-343.5948791503907	97.07439422607425	-1119.4599609375	-319.5137329101563	90.68492126464845	-1034.565551757813	-415.9299926757814	42.2279396057129	-1077.740600585938	-181.6959228515625	53.54200744628908	-1092.590209960938	-192.5409240722657	55.43801879882814	-1133.730590820313	-242.9071350097657	32.51406478881837	-1179.2265625	-362.3072814941407	684.4160156250001	-691.6436767578126	-297.9461364746094	670.6154174804689	-678.3436889648439	-274.1150817871094	692.3903198242189	-687.5035400390626	-266.8512573242188	592.4885253906251	-665.9756469726564	-216.8376007080079	478.2924194335939	-671.3472290039064	-176.40966796875	469.4377441406251	-776.4046020507815	-219.6368865966797	277.8207397460938	-681.4179077148439	-317.5610046386719	234.7243041992188	-674.7708740234376	-274.5123291015626	215.9429473876954	-675.4407348632814	-267.9182739257813	162.9610595703125	-702.8648681640626	-355.0775756835938	90.60017395019533	-682.8845214843751	-320.6748046875001	96.64455413818362	-766.9594116210939	-423.407196044922	41.30187606811524	-731.9249267578126	-190.4729919433594	51.08442687988283	-709.9518432617189	-200.508285522461	58.24904251098634	-665.3233032226564	-257.1781005859376	32.29021453857423	-617.8504638671876	
698	3.485	39.71264648437501	1407.505981445313	-815.256286621094	-104.6301956176758	1383.84912109375	-951.3300781250002	-92.97535705566408	1389.15380859375	-809.634704589844	-172.8162231445313	1296.576171875	-893.8167114257815	-387.8587036132814	1070.311767578125	-904.3659667968752	-102.8956832885742	1153.915283203125	-888.4890136718752	-95.29669189453126	1221.98486328125	-1075.431274414063	-224.8700714111329	1174.550415039063	-1255.387084960938	-220.9835357666016	1124.308471679688	-1256.14990234375	-258.6661682128907	1134.07470703125	-1302.218383789063	-299.5208129882813	1081.944458007813	-1332.783081054688	-371.4206237792969	1127.913818359375	-1303.378295898438	-468.052947998047	927.6839599609377	-1147.294677734375	-440.8052062988282	873.4259033203127	-1192.546752929688	-429.1690368652345	909.0485839843752	-1093.204833984375	-111.9893569946289	1212.671752929688	-701.6017456054689	-268.2604980468751	1202.137573242188	-551.9873046875001	-266.9594421386719	1152.834106445313	-537.4381103515626	-312.4463195800782	1174.8349609375	-503.915008544922	-351.5082092285157	1121.843872070313	-472.6697998046876	-419.9121093750001	1164.1376953125	-514.2818603515626	-455.7297363281251	953.7534790039065	-697.9338378906251	-464.8140258789064	902.5919189453127	-643.1376342773439	-411.9876403808595	914.0526123046877	-740.1700439453126	-373.8639526367188	837.8591918945315	-1018.622314453125	-374.1715393066407	836.151550292969	-805.3550415039065	-496.1968383789064	983.6877441406252	-906.992126464844	-521.9869384765626	963.9338989257815	-935.6701660156252	-525.8623657226564	962.6743164062502	-877.6450805664065	-356.7908020019532	664.1278076171876	-1127.261962890625	-280.4246826171876	626.2836914062501	-1138.330810546875	-243.0982360839844	656.1961669921876	-1132.167358398438	-266.6148071289063	566.7369384765626	-1124.41162109375	-197.5196990966797	488.6309814453126	-1123.099731445313	-159.2467346191407	467.9432067871095	-1019.784729003906	-161.448486328125	344.9644165039063	-1110.720336914063	-238.4033355712891	325.7355651855469	-1149.705444335938	-202.4596862792969	311.7034912109376	-1131.192504882813	-225.4587402343751	235.245590209961	-1091.623168945313	-343.5975036621094	97.0519943237305	-1119.418090820313	-319.4577026367188	90.61309051513673	-1034.47802734375	-415.936981201172	42.29226684570313	-1077.698120117188	-181.6609344482422	53.48508453369142	-1092.619262695313	-192.4363250732422	55.38017654418947	-1133.663452148438	-242.9752655029297	32.61466217041016	-1179.192016601563	-362.1844177246094	684.0971069335939	-691.6567993164064	-297.6816711425782	670.4284057617189	-678.3006591796876	-273.8540954589844	692.2436523437501	-687.4942626953126	-266.7072143554688	592.3004760742189	-665.9066162109376	-216.4716491699219	478.0595092773439	-671.3664550781251	-176.0206909179688	469.3179626464845	-776.399353027344	-219.4144592285157	277.5769958496094	-681.5369873046876	-317.3603210449219	234.7432556152344	-674.7695312500001	-274.3298645019532	215.8629150390626	-675.4216918945314	-267.8308410644532	162.8979187011719	-702.8621826171876	-355.0644531250001	90.5784149169922	-682.9168090820314	-320.6519165039063	96.59437561035159	-766.9837646484376	-423.4241333007814	41.34603500366212	-731.9497070312501	-190.4973907470703	51.07450103759767	-709.9895629882814	-200.4930419921876	58.25816726684572	-665.3668212890626	-257.1733398437501	32.2938575744629	-617.8460693359376	
699	3.49	40.59937286376954	1406.2001953125	-815.0181884765627	-105.0154037475586	1382.719116210938	-950.507019042969	-92.3325653076172	1388.28564453125	-809.4373168945315	-172.1302337646485	1295.298828125	-893.6289672851565	-387.3983459472657	1069.642578125	-904.3140258789065	-102.3213272094727	1152.992309570313	-888.3699951171877	-94.65516662597658	1221.234741210938	-1075.211303710938	-224.2756958007813	1173.591674804688	-1255.078369140625	-220.2335510253907	1122.970947265625	-1256.05859375	-258.0050964355469	1133.261840820313	-1302.00830078125	-298.9147949218751	1081.206420898438	-1332.7470703125	-370.4154357910157	1127.073852539063	-1303.2431640625	-467.5561523437501	927.0994262695315	-1147.2607421875	-440.3562622070314	872.7962646484377	-1192.48779296875	-429.1232299804689	908.5214843750002	-1093.144653320313	-111.2389144897461	1211.411010742188	-701.5498046875001	-267.6849670410157	1201.034790039063	-551.8967285156251	-266.4832763671876	1152.048217773438	-537.4351196289064	-311.8447570800782	1173.768432617188	-503.9232177734376	-350.9320373535157	1121.181518554688	-472.4890747070314	-419.4301757812501	1163.331787109375	-514.1008300781251	-455.0869140625001	953.0852661132815	-697.8342895507814	-464.6726989746095	902.0506591796877	-643.1456909179689	-411.8323059082032	913.4304199218752	-740.1868896484376	-373.6275024414063	837.4080810546877	-1018.647705078125	-373.9062500000001	835.5598144531252	-805.6173095703127	-495.9531860351564	983.5344238281252	-907.064392089844	-521.7355346679689	963.4904785156252	-935.6082763671877	-525.5692749023439	962.129333496094	-877.551696777344	-356.4985961914063	663.7498779296876	-1127.149291992188	-280.1657714843751	625.9825439453126	-1138.248413085938	-242.8012237548829	655.8759765625001	-1131.986328125	-266.2700500488282	566.4114990234376	-1124.374633789063	-197.1371307373047	488.5046386718751	-1122.903198242188	-159.0572357177735	467.7197875976564	-1019.715515136719	-161.1802673339844	344.8307189941407	-1110.694946289063	-238.0593261718751	325.6751708984376	-1149.62060546875	-201.9545898437501	311.7635498046876	-1131.251831054688	-225.2685546875001	235.1155853271485	-1091.525146484375	-343.5226440429688	97.12030029296878	-1119.339965820313	-319.3286437988282	90.49248504638673	-1034.42724609375	-415.9398498535157	42.27438735961915	-1077.673217773438	-181.5780029296875	53.50863647460939	-1092.630737304688	-192.5164337158204	55.33773040771486	-1133.640258789063	-242.9175109863282	32.5583839416504	-1179.203369140625	-361.9425354003907	683.7039184570314	-691.7153930664064	-297.9587707519532	669.6718139648439	-678.5923461914064	-273.6654052734376	692.0682373046876	-687.5632934570314	-266.5308227539063	592.0056152343751	-665.8870239257814	-216.0194549560547	477.9703063964845	-671.3266601562501	-175.5801239013672	469.1298828125001	-776.3460693359377	-219.2551269531251	277.4454650878907	-681.5987548828126	-317.1117248535157	234.6285705566407	-674.7697753906251	-274.2541198730469	215.702621459961	-675.4697875976564	-267.7684631347657	162.8758239746094	-702.8724365234376	-355.0771484375001	90.60581207275392	-682.9592285156251	-320.5241088867188	96.56715393066409	-766.9661254882814	-423.3919677734376	41.36157226562501	-731.9596557617189	-190.4826812744141	51.09615707397462	-709.9949340820314	-200.5224304199219	58.22695159912111	-665.3797607421876	-257.1594848632813	32.30979919433594	-617.8467407226564	
700	3.495	41.29692077636719	1405.171142578125	-814.8364257812502	-103.4624633789063	1381.732543945313	-950.895690917969	-91.71018981933595	1387.211669921875	-809.454772949219	-171.4752502441407	1294.532958984375	-893.5344238281252	-387.2735290527345	1068.869140625	-904.306579589844	-101.8041534423828	1151.947387695313	-888.2426757812502	-94.2298049926758	1220.007690429688	-1074.984497070313	-223.4096679687501	1172.5615234375	-1254.997436523438	-219.4835815429688	1121.980102539063	-1256.078857421875	-257.1126403808594	1132.3173828125	-1302.086181640625	-298.4259948730469	1080.182495117188	-1332.4755859375	-369.7891235351563	1126.435180664063	-1303.147216796875	-469.0020751953126	926.5458984375002	-1147.573486328125	-440.0703125000001	872.0845947265627	-1192.456176757813	-428.7094726562501	907.997497558594	-1093.13818359375	-110.6846313476563	1210.421752929688	-701.3142089843751	-267.0756835937501	1200.1240234375	-551.6690673828126	-266.0037536621094	1150.976928710938	-537.2665405273439	-311.3383178710938	1172.98291015625	-503.5908508300782	-350.7492980957032	1119.922485351563	-472.9597473144532	-418.8282775878907	1162.605712890625	-513.9682006835939	-454.6977539062501	952.4667968750002	-697.6967773437501	-464.3580017089845	901.3743286132815	-643.0902709960939	-411.6182861328126	912.7532958984377	-740.1034545898439	-373.4403076171876	836.8953857421877	-1018.565307617188	-373.6657104492188	834.5941162109377	-805.212341308594	-495.651824951172	982.9944458007815	-906.977478027344	-521.3527832031251	962.9817504882815	-935.619812011719	-525.2394409179689	961.588562011719	-877.8002929687502	-356.1632690429688	663.3780517578126	-1127.208129882813	-279.9227600097657	625.6838989257814	-1138.18603515625	-242.4104614257813	655.3922729492189	-1131.939819335938	-265.8260498046876	566.0694580078126	-1124.275512695313	-196.8169860839844	488.4384155273439	-1122.81640625	-158.7626953125	467.4006652832032	-1019.653259277344	-160.8458709716797	344.6468505859376	-1110.621826171875	-237.7733459472657	325.5347595214844	-1149.57177734375	-201.7931365966797	311.6648254394532	-1131.0322265625	-225.0104064941407	235.0416870117188	-1091.361083984375	-343.4777526855469	97.12581634521487	-1119.286254882813	-319.2759704589844	90.49465942382814	-1034.359375	-415.8657836914064	42.30729293823243	-1077.659545898438	-181.6356811523438	53.43038558959962	-1092.615600585938	-192.4935150146485	55.32734298706056	-1133.605102539063	-242.9061737060547	32.59527587890626	-1179.219604492188	-361.7454223632813	683.2378540039064	-691.8239135742189	-297.7804565429688	669.4399414062501	-678.5125122070314	-273.4511413574219	691.8614501953126	-687.5873413085939	-266.2215270996094	591.7626342773439	-665.9250488281251	-215.6584014892579	477.7989807128907	-671.2793579101564	-175.2720489501953	469.002655029297	-776.3336181640627	-219.0510864257813	277.2701416015626	-681.5708618164064	-317.3437194824219	234.2186584472657	-675.0603637695314	-274.0898132324219	215.5658111572266	-675.5361328125001	-267.7113342285157	162.8029174804688	-702.8156738281251	-355.0194091796876	90.60165405273439	-682.9956665039064	-320.4505920410157	96.51519775390628	-766.9988403320314	-423.3815917968751	41.36914062500001	-732.0295410156251	-190.4656982421875	51.11796188354494	-710.0128784179689	-200.4215393066407	58.1227493286133	-665.3774414062501	-257.1820678710938	32.27119445800782	-617.8443603515626	
